{
  "accessors": [
    {
      "bufferView": 2,
      "componentType": 5126,
      "count": 65532,
      "max": [
        6.50351095199585,
        6.736461162567139,
        8.206294059753418
      ],
      "min": [
        -5.2349700927734375,
        -12.543665885925293,
        -4.0453667640686035
      ],
      "type": "VEC3"
    },
    {
      "bufferView": 2,
      "byteOffset": 786384,
      "componentType": 5126,
      "count": 65532,
      "max": [
        0.9999003410339355,
        1.0,
        0.9999679923057556
      ],
      "min": [
        -0.999977171421051,
        -0.9999995827674866,
        -0.9999903440475464
      ],
      "type": "VEC3"
    },
    {
      "bufferView": 1,
      "componentType": 5126,
      "count": 65532,
      "max": [
        0.9985349774360657,
        0.9891300201416016
      ],
      "min": [
        0.0014649999793618917,
        0.0014819999923929572
      ],
      "type": "VEC2"
    },
    {
      "bufferView": 0,
      "componentType": 5125,
      "count": 358191,
      "type": "SCALAR"
    },
    {
      "bufferView": 2,
      "byteOffset": 1572768,
      "componentType": 5126,
      "count": 65532,
      "max": [
        6.502007007598877,
        6.736461162567139,
        8.342341423034668
      ],
      "min": [
        -5.4882731437683105,
        -12.51520824432373,
        -4.286099910736084
      ],
      "type": "VEC3"
    },
    {
      "bufferView": 2,
      "byteOffset": 2359152,
      "componentType": 5126,
      "count": 65532,
      "max": [
        0.999928891658783,
        1.0,
        0.9999874234199524
      ],
      "min": [
        -0.9999954104423523,
        -0.9998952746391296,
        -0.9999743103981018
      ],
      "type": "VEC3"
    },
    {
      "bufferView": 1,
      "byteOffset": 524256,
      "componentType": 5126,
      "count": 65532,
      "max": [
        0.998291015625,
        0.9985179901123047
      ],
      "min": [
        0.0014649999793618917,
        0.0014819999923929572
      ],
      "type": "VEC2"
    },
    {
      "bufferView": 0,
      "byteOffset": 1432764,
      "componentType": 5125,
      "count": 359310,
      "type": "SCALAR"
    },
    {
      "bufferView": 2,
      "byteOffset": 3145536,
      "componentType": 5126,
      "count": 22797,
      "max": [
        2.029813051223755,
        6.736461162567139,
        5.490106105804443
      ],
      "min": [
        -5.438299179077148,
        -12.445011138916016,
        -3.119018077850342
      ],
      "type": "VEC3"
    },
    {
      "bufferView": 2,
      "byteOffset": 3419100,
      "componentType": 5126,
      "count": 22797,
      "max": [
        0.9134657979011536,
        1.0,
        0.9999465942382813
      ],
      "min": [
        -0.9999859929084778,
        -0.9999917149543762,
        -0.999944269657135
      ],
      "type": "VEC3"
    },
    {
      "bufferView": 1,
      "byteOffset": 1048512,
      "componentType": 5126,
      "count": 22797,
      "max": [
        0.998291015625,
        0.9908599853515625
      ],
      "min": [
        0.01977499946951866,
        0.09856700152158737
      ],
      "type": "VEC2"
    },
    {
      "bufferView": 0,
      "byteOffset": 2870004,
      "componentType": 5125,
      "count": 122331,
      "type": "SCALAR"
    }
  ],
  "asset": {
    "extras": {
      "author": "nikolettarok (https://sketchfab.com/nikolettarok17)",
      "license": "CC-BY-4.0 (http://creativecommons.org/licenses/by/4.0/)",
      "source": "https://sketchfab.com/3d-models/bust-of-the-ancient-greek-philosopher-socrates-34d7fd9ffa954e2e81a8f14a9bb51c91",
      "title": "Bust of the Ancient Greek Philosopher Socrates"
    },
    "generator": "Sketchfab-12.68.0",
    "version": "2.0"
  },
  "bufferViews": [
    {
      "buffer": 0,
      "byteLength": 3359328,
      "name": "floatBufferViews",
      "target": 34963
    },
    {
      "buffer": 0,
      "byteLength": 1230888,
      "byteOffset": 3359328,
      "byteStride": 8,
      "name": "floatBufferViews",
      "target": 34962
    },
    {
      "buffer": 0,
      "byteLength": 3692664,
      "byteOffset": 4590216,
      "byteStride": 12,
      "name": "floatBufferViews",
      "target": 34962
    }
  ],
  "buffers": [
    {
      "byteLength": 8282880,
      "uri": "scene.bin"
    }
  ],
  "images": [
    {
      "uri": "textures/Material_0_baseColor.jpeg"
    }
  ],
  "materials": [
    {
      "doubleSided": true,
      "name": "Material_0",
      "pbrMetallicRoughness": {
        "baseColorTexture": {
          "index": 0
        },
        "metallicFactor": 0.0
      }
    }
  ],
  "meshes": [
    {
      "name": "Object_0",
      "primitives": [
        {
          "attributes": {
            "NORMAL": 1,
            "POSITION": 0,
            "TEXCOORD_0": 2
          },
          "indices": 3,
          "material": 0,
          "mode": 4
        }
      ]
    },
    {
      "name": "Object_1",
      "primitives": [
        {
          "attributes": {
            "NORMAL": 5,
            "POSITION": 4,
            "TEXCOORD_0": 6
          },
          "indices": 7,
          "material": 0,
          "mode": 4
        }
      ]
    },
    {
      "name": "Object_2",
      "primitives": [
        {
          "attributes": {
            "NORMAL": 9,
            "POSITION": 8,
            "TEXCOORD_0": 10
          },
          "indices": 11,
          "material": 0,
          "mode": 4
        }
      ]
    }
  ],
  "nodes": [
    {
      "children": [
        1
      ],
      "matrix": [
        2.220446049250313e-16,
        4.440892098500626e-16,
        -1.0,
        0.0,
        0.0,
        -1.0,
        -4.440892098500626e-16,
        0.0,
        -1.0,
        4.930380657631324e-32,
        -2.220446049250313e-16,
        0.0,
        2.5357234477996826,
        -0.8755149841308602,
        3.411238431930542,
        1.0
      ],
      "name": "Sketchfab_model"
    },
    {
      "children": [
        2,
        3,
        4
      ],
      "name": "socrates_final.obj.cleaner.materialmerger.gles"
    },
    {
      "mesh": 0,
      "name": "Object_2"
    },
    {
      "mesh": 1,
      "name": "Object_3"
    },
    {
      "mesh": 2,
      "name": "Object_4"
    }
  ],
  "samplers": [
    {
      "magFilter": 9729,
      "minFilter": 9987,
      "wrapS": 10497,
      "wrapT": 10497
    }
  ],
  "scene": 0,
  "scenes": [
    {
      "name": "Sketchfab_Scene",
      "nodes": [
        0
      ]
    }
  ],
  "textures": [
    {
      "sampler": 0,
      "source": 0
    }
  ]
}
