{
  "accessors": [
    {
      "bufferView": 2,
      "componentType": 5126,
      "count": 236,
      "max": [
        0.34472060203552246,
        0.08207633346319199,
        0.05158161371946335
      ],
      "min": [
        -0.08207632601261139,
        -0.08207633346319199,
        0.01625359058380127
      ],
      "type": "VEC3"
    },
    {
      "bufferView": 2,
      "byteOffset": 2832,
      "componentType": 5126,
      "count": 236,
      "max": [
        1.0,
        1.0,
        0.9987962245941162
      ],
      "min": [
        -1.0,
        -1.0,
        0.0
      ],
      "type": "VEC3"
    },
    {
      "bufferView": 3,
      "componentType": 5126,
      "count": 236,
      "max": [
        1.0,
        1.0,
        0.972965657711029,
        1.0
      ],
      "min": [
        -1.0,
        -1.0,
        -0.972965657711029,
        1.0
      ],
      "type": "VEC4"
    },
    {
      "bufferView": 1,
      "componentType": 5126,
      "count": 236,
      "max": [
        0.7733728885650635,
        0.7001374959945679
      ],
      "min": [
        0.5529118776321411,
        0.4461515247821808
      ],
      "type": "VEC2"
    },
    {
      "bufferView": 0,
      "componentType": 5125,
      "count": 1092,
      "type": "SCALAR"
    },
    {
      "bufferView": 2,
      "byteOffset": 5664,
      "componentType": 5126,
      "count": 229,
      "max": [
        0.1576373279094696,
        0.14833268523216248,
        0.05271321162581444
      ],
      "min": [
        -0.2196464240550995,
        -0.2300558239221573,
        0.009529858827590942
      ],
      "type": "VEC3"
    },
    {
      "bufferView": 2,
      "byteOffset": 8412,
      "componentType": 5126,
      "count": 229,
      "max": [
        1.0,
        1.0,
        1.0
      ],
      "min": [
        -1.0,
        -1.0,
        -5.447350304166321e-07
      ],
      "type": "VEC3"
    },
    {
      "bufferView": 3,
      "byteOffset": 3776,
      "componentType": 5126,
      "count": 229,
      "max": [
        0.9999988675117493,
        0.7882550954818726,
        1.0,
        1.0
      ],
      "min": [
        -0.810858428478241,
        -0.8067440986633301,
        -0.8652458190917969,
        1.0
      ],
      "type": "VEC4"
    },
    {
      "bufferView": 1,
      "byteOffset": 1888,
      "componentType": 5126,
      "count": 229,
      "max": [
        0.87708979845047,
        0.6820232272148132
      ],
      "min": [
        0.5717559456825256,
        0.4837324023246765
      ],
      "type": "VEC2"
    },
    {
      "bufferView": 0,
      "byteOffset": 4368,
      "componentType": 5125,
      "count": 924,
      "type": "SCALAR"
    },
    {
      "bufferView": 2,
      "byteOffset": 11160,
      "componentType": 5126,
      "count": 398,
      "max": [
        0.20059208571910858,
        0.12110748887062073,
        0.041020266711711884
      ],
      "min": [
        -0.2005920708179474,
        -0.08577284961938858,
        5.587935447692871e-09
      ],
      "type": "VEC3"
    },
    {
      "bufferView": 2,
      "byteOffset": 15936,
      "componentType": 5126,
      "count": 398,
      "max": [
        1.0,
        0.9969278573989868,
        1.0
      ],
      "min": [
        -1.0,
        -0.996927797794342,
        -1.0
      ],
      "type": "VEC3"
    },
    {
      "bufferView": 3,
      "byteOffset": 7440,
      "componentType": 5126,
      "count": 398,
      "max": [
        1.0,
        0.9978693723678589,
        0.9994754791259766,
        1.0
      ],
      "min": [
        -1.0,
        -0.9999992251396179,
        -0.9994866251945496,
        1.0
      ],
      "type": "VEC4"
    },
    {
      "bufferView": 1,
      "byteOffset": 3720,
      "componentType": 5126,
      "count": 398,
      "max": [
        0.8804293274879456,
        0.9885739684104919
      ],
      "min": [
        0.011877298355102539,
        0.01459591556340456
      ],
      "type": "VEC2"
    },
    {
      "bufferView": 0,
      "byteOffset": 8064,
      "componentType": 5125,
      "count": 1440,
      "type": "SCALAR"
    },
    {
      "bufferView": 2,
      "byteOffset": 20712,
      "componentType": 5126,
      "count": 76,
      "max": [
        0.03590148687362671,
        -0.03447464480996132,
        0.04499118775129318
      ],
      "min": [
        -0.03590148687362671,
        -0.044329747557640076,
        0.040010906755924225
      ],
      "type": "VEC3"
    },
    {
      "bufferView": 2,
      "byteOffset": 21624,
      "componentType": 5126,
      "count": 76,
      "max": [
        1.0,
        0.9807852506637573,
        1.0
      ],
      "min": [
        -1.0,
        -0.9807853102684021,
        0.0
      ],
      "type": "VEC3"
    },
    {
      "bufferView": 3,
      "byteOffset": 13808,
      "componentType": 5126,
      "count": 76,
      "max": [
        3.211713874406996e-06,
        1.0,
        4.768906623764391e-12,
        1.0
      ],
      "min": [
        -3.211713874406996e-06,
        -6.611519154375856e-08,
        -1.0,
        -1.0
      ],
      "type": "VEC4"
    },
    {
      "bufferView": 1,
      "byteOffset": 6904,
      "componentType": 5126,
      "count": 76,
      "max": [
        0.8812705874443054,
        0.9928079843521118
      ],
      "min": [
        0.6536750197410583,
        0.5320214629173279
      ],
      "type": "VEC2"
    },
    {
      "bufferView": 0,
      "byteOffset": 13824,
      "componentType": 5125,
      "count": 204,
      "type": "SCALAR"
    },
    {
      "bufferView": 2,
      "byteOffset": 22536,
      "componentType": 5126,
      "count": 216,
      "max": [
        0.2074374556541443,
        0.2084655612707138,
        -0.003488577902317047
      ],
      "min": [
        -0.2086639404296875,
        -0.20409874618053436,
        -0.017009809613227844
      ],
      "type": "VEC3"
    },
    {
      "bufferView": 2,
      "byteOffset": 25128,
      "componentType": 5126,
      "count": 216,
      "max": [
        0.9383185505867004,
        0.9362636208534241,
        1.0
      ],
      "min": [
        -0.937353789806366,
        -0.93790203332901,
        0.34577205777168274
      ],
      "type": "VEC3"
    },
    {
      "bufferView": 3,
      "byteOffset": 15024,
      "componentType": 5126,
      "count": 216,
      "max": [
        1.0,
        1.0,
        0.1286441832780838,
        1.0
      ],
      "min": [
        -1.0,
        -1.0,
        -0.13021886348724365,
        1.0
      ],
      "type": "VEC4"
    },
    {
      "bufferView": 1,
      "byteOffset": 7512,
      "componentType": 5126,
      "count": 216,
      "max": [
        0.8856127262115479,
        0.6527802348136902
      ],
      "min": [
        0.710610568523407,
        0.44297516345977783
      ],
      "type": "VEC2"
    },
    {
      "bufferView": 0,
      "byteOffset": 14640,
      "componentType": 5125,
      "count": 504,
      "type": "SCALAR"
    }
  ],
  "asset": {
    "extras": {
      "author": "danbykov (https://sketchfab.com/danbykov)",
      "license": "CC-BY-4.0 (http://creativecommons.org/licenses/by/4.0/)",
      "source": "https://sketchfab.com/3d-models/old-console-gamepad-c03f74a2cae54d178c654f0a49308fe0",
      "title": "Old console gamepad"
    },
    "generator": "Sketchfab-12.66.0",
    "version": "2.0"
  },
  "bufferViews": [
    {
      "buffer": 0,
      "byteLength": 16656,
      "name": "floatBufferViews",
      "target": 34963
    },
    {
      "buffer": 0,
      "byteLength": 9240,
      "byteOffset": 16656,
      "byteStride": 8,
      "name": "floatBufferViews",
      "target": 34962
    },
    {
      "buffer": 0,
      "byteLength": 27720,
      "byteOffset": 25896,
      "byteStride": 12,
      "name": "floatBufferViews",
      "target": 34962
    },
    {
      "buffer": 0,
      "byteLength": 18480,
      "byteOffset": 53616,
      "byteStride": 16,
      "name": "floatBufferViews",
      "target": 34962
    }
  ],
  "buffers": [
    {
      "byteLength": 72096,
      "uri": "scene.bin"
    }
  ],
  "images": [
    {
      "uri": "textures/GamePad_baseColor.png"
    },
    {
      "uri": "textures/GamePad_metallicRoughness.png"
    },
    {
      "uri": "textures/GamePad_normal.png"
    }
  ],
  "materials": [
    {
      "doubleSided": true,
      "name": "GamePad",
      "normalTexture": {
        "index": 2
      },
      "pbrMetallicRoughness": {
        "baseColorTexture": {
          "index": 0
        },
        "metallicRoughnessTexture": {
          "index": 1
        }
      }
    }
  ],
  "meshes": [
    {
      "name": "CircleButtons.001_GamePad_0",
      "primitives": [
        {
          "attributes": {
            "NORMAL": 1,
            "POSITION": 0,
            "TANGENT": 2,
            "TEXCOORD_0": 3
          },
          "indices": 4,
          "material": 0,
          "mode": 4
        }
      ]
    },
    {
      "name": "Cross.001_GamePad_0",
      "primitives": [
        {
          "attributes": {
            "NORMAL": 6,
            "POSITION": 5,
            "TANGENT": 7,
            "TEXCOORD_0": 8
          },
          "indices": 9,
          "material": 0,
          "mode": 4
        }
      ]
    },
    {
      "name": "GamePad.001_GamePad_0",
      "primitives": [
        {
          "attributes": {
            "NORMAL": 11,
            "POSITION": 10,
            "TANGENT": 12,
            "TEXCOORD_0": 13
          },
          "indices": 14,
          "material": 0,
          "mode": 4
        }
      ]
    },
    {
      "name": "StartSelect.001_GamePad_0",
      "primitives": [
        {
          "attributes": {
            "NORMAL": 16,
            "POSITION": 15,
            "TANGENT": 17,
            "TEXCOORD_0": 18
          },
          "indices": 19,
          "material": 0,
          "mode": 4
        }
      ]
    },
    {
      "name": "Cross.002_GamePad_0",
      "primitives": [
        {
          "attributes": {
            "NORMAL": 21,
            "POSITION": 20,
            "TANGENT": 22,
            "TEXCOORD_0": 23
          },
          "indices": 24,
          "material": 0,
          "mode": 4
        }
      ]
    }
  ],
  "nodes": [
    {
      "children": [
        1
      ],
      "matrix": [
        1.0,
        0.0,
        0.0,
        0.0,
        0.0,
        2.220446049250313e-16,
        -1.0,
        0.0,
        0.0,
        1.0,
        2.220446049250313e-16,
        0.0,
        0.0,
        0.0,
        0.0,
        1.0
      ],
      "name": "Sketchfab_model"
    },
    {
      "children": [
        2
      ],
      "matrix": [
        1.0,
        0.0,
        0.0,
        0.0,
        0.0,
        0.0,
        1.0,
        0.0,
        0.0,
        -1.0,
        0.0,
        0.0,
        0.0,
        0.0,
        0.0,
        1.0
      ],
      "name": "0bc9850080db4c32a863e1e89bcc7d9f.fbx"
    },
    {
      "children": [
        3,
        5,
        7,
        9,
        11
      ],
      "name": "RootNode"
    },
    {
      "children": [
        4
      ],
      "matrix": [
        82.68410561940672,
        3.561863548807256e-06,
        -56.24355209301714,
        0.0,
        -56.24355209301565,
        -1.8714924847529412e-05,
        -82.6841056194057,
        0.0,
        -1.3471035570367107e-05,
        99.9999999999982,
        -1.3470951709670942e-05,
        0.0,
        42.84919357299805,
        18.10384750366211,
        5.313523292541504,
        1.0
      ],
      "name": "CircleButtons.001"
    },
    {
      "mesh": 0,
      "name": "CircleButtons.001_GamePad_0"
    },
    {
      "children": [
        6
      ],
      "matrix": [
        100.0,
        0.0,
        0.0,
        0.0,
        -0.0,
        -1.629206793918314e-05,
        -99.99999999999868,
        0.0,
        0.0,
        99.99999999999868,
        -1.629206793918314e-05,
        0.0,
        -54.988975524902344,
        18.776222229003906,
        -2.248488187789917,
        1.0
      ],
      "name": "Cross.001"
    },
    {
      "mesh": 1,
      "name": "Cross.001_GamePad_0"
    },
    {
      "children": [
        8
      ],
      "matrix": [
        500.0,
        0.0,
        0.0,
        0.0,
        0.0,
        -8.14603396959157e-05,
        -499.9999999999934,
        0.0,
        0.0,
        499.9999999999934,
        -8.14603396959157e-05,
        0.0,
        0.0,
        0.0,
        0.0,
        1.0
      ],
      "name": "GamePad.001"
    },
    {
      "mesh": 2,
      "name": "GamePad.001_GamePad_0"
    },
    {
      "children": [
        10
      ],
      "matrix": [
        500.0,
        0.0,
        0.0,
        0.0,
        0.0,
        -8.14603396959157e-05,
        -499.9999999999934,
        0.0,
        0.0,
        499.9999999999934,
        -8.14603396959157e-05,
        0.0,
        0.0,
        -1.208188533782959,
        1.9683885454924166e-07,
        1.0
      ],
      "name": "StartSelect.001"
    },
    {
      "mesh": 3,
      "name": "StartSelect.001_GamePad_0"
    },
    {
      "children": [
        12
      ],
      "matrix": [
        100.0,
        0.0,
        0.0,
        0.0,
        -0.0,
        -1.629206793918314e-05,
        -99.99999999999868,
        0.0,
        0.0,
        99.99999999999868,
        -1.629206793918314e-05,
        0.0,
        -58.0026969909668,
        20.66240692138672,
        1.9243696928024292,
        1.0
      ],
      "name": "Cross.002"
    },
    {
      "mesh": 4,
      "name": "Cross.002_GamePad_0"
    }
  ],
  "samplers": [
    {
      "magFilter": 9729,
      "minFilter": 9987,
      "wrapS": 10497,
      "wrapT": 10497
    }
  ],
  "scene": 0,
  "scenes": [
    {
      "name": "Sketchfab_Scene",
      "nodes": [
        0
      ]
    }
  ],
  "textures": [
    {
      "sampler": 0,
      "source": 0
    },
    {
      "sampler": 0,
      "source": 1
    },
    {
      "sampler": 0,
      "source": 2
    }
  ]
}
